<svg id="图层_1" data-name="图层 1" xmlns="http://www.w3.org/2000/svg" viewBox="0 0 231.8 77.68"><defs><style>.cls-1{fill:#fff;}.cls-2{fill:#0295ff;}</style></defs><title>概而论logo-1118(1)</title><path class="cls-1" d="M196.73,246.2a8.12,8.12,0,0,0-8.12,8.12v1.6a8.12,8.12,0,0,0,8.12,8.12h13.12a1,1,0,0,0,.77-.37l12.91-15.85a1,1,0,0,0-.77-1.62Z" transform="translate(-158.29 -216.28)"/><path class="cls-1" d="M203.77,294h28.75a9.55,9.55,0,0,0,9.52-9.52v-36.8a1,1,0,0,0-1.76-.63L203,292.33A1,1,0,0,0,203.77,294Z" transform="translate(-158.29 -216.28)"/><polygon class="cls-2" points="42.18 59.84 42.18 59.84 42.19 59.84 42.18 59.84"/><path class="cls-1" d="M179,234.11h55.21a1,1,0,0,0,.77-.37L247.9,217.9a1,1,0,0,0-.77-1.62H167.78a11,11,0,0,0-7.17,2.93,8.88,8.88,0,0,0-2.32,6v60a8.78,8.78,0,0,0,8.78,8.78h18.2l.81-.38,13-15.83a1,1,0,0,0-.77-1.62H179a2.88,2.88,0,0,1-2.88-2.88V237A2.88,2.88,0,0,1,179,234.11Z" transform="translate(-158.29 -216.28)"/><path class="cls-1" d="M274.82,283.95h7.7a6,6,0,0,1-2.24,4.47,8.27,8.27,0,0,1-5.44,1.9,7.58,7.58,0,0,1-5.71-2.4,8.52,8.52,0,0,1,0-11.62,7.59,7.59,0,0,1,5.71-2.4,7.09,7.09,0,0,1,3.31.69,22.79,22.79,0,0,1,3.56,2.55l.32.26,2.55-2.75-.3-.3a14.59,14.59,0,0,0-4.38-3.16,12.75,12.75,0,0,0-5.05-.93,11.68,11.68,0,0,0-8.45,3.45,11.76,11.76,0,0,0,0,16.81,11.7,11.7,0,0,0,8.41,3.44,12.13,12.13,0,0,0,8.06-3,10.38,10.38,0,0,0,3.59-8.3V280.3H274.82Z" transform="translate(-158.29 -216.28)"/><path class="cls-1" d="M300.59,286a6.67,6.67,0,0,1-1.51,3.3,4.14,4.14,0,0,1-3.13,1.08,4.3,4.3,0,0,1-3.24-1.31,4.68,4.68,0,0,1-1.25-3l1.41,2.75,11-6.09-.18-.37a9.41,9.41,0,0,0-3.1-3.71,8.05,8.05,0,0,0-4.62-1.32,8.16,8.16,0,0,0-5.83,2.34,8.49,8.49,0,0,0,0,11.93,8.16,8.16,0,0,0,5.83,2.34,8.67,8.67,0,0,0,5.89-2.12,6.84,6.84,0,0,0,2.45-5.33v-.39l-3.61-.44Zm-9.15-.29s0-.09,0-.13a4.84,4.84,0,0,1,1.26-3.48,4.31,4.31,0,0,1,3.24-1.31,4.18,4.18,0,0,1,1.75.31,4.34,4.34,0,0,1,.94.62Z" transform="translate(-158.29 -216.28)"/><path class="cls-1" d="M310.3,277.8a4.41,4.41,0,0,0-1.11.78v-1h-3.52v16h3.64v-7.49a6.67,6.67,0,0,1,1-4.09,3.4,3.4,0,0,1,2.82-1.2H314v-3.52h-1.07A6,6,0,0,0,310.3,277.8Z" transform="translate(-158.29 -216.28)"/><rect class="cls-1" x="156.87" y="54.36" width="3.64" height="22.94"/><path class="cls-1" d="M331.59,286.85a3.52,3.52,0,0,1-1,2.54,3.09,3.09,0,0,1-2.29,1,3,3,0,0,1-2.3-1,3.56,3.56,0,0,1-1-2.53V277.6h-3.64v9.25a6.92,6.92,0,0,0,2,5.09,7.22,7.22,0,0,0,9.87,0,6.92,6.92,0,0,0,2-5.09V277.6h-3.64Z" transform="translate(-158.29 -216.28)"/><path class="cls-1" d="M349.09,279.23a7.22,7.22,0,0,0-9.87,0,6.93,6.93,0,0,0-2,5.09v9.25h3.64v-9.25a3.51,3.51,0,0,1,1-2.54,3.09,3.09,0,0,1,2.28-1,3.05,3.05,0,0,1,2.3,1,3.56,3.56,0,0,1,1,2.53v9.25H351v-9.25A6.92,6.92,0,0,0,349.09,279.23Z" transform="translate(-158.29 -216.28)"/><path class="cls-1" d="M334.8,260.7a9.43,9.43,0,0,0,1.85-2.79,9.83,9.83,0,0,0,.75-3.91V240.27h-3.8v19.26h-5.47V240.27h-3.8v19.26H318.9V240.27h-3.8v20.39H309.4V235.4h10.78l0-.09q.24-.68.44-1.38l.45-1.55H308.72V227.5h35v4.87h-15l0,.1q-.2.72-.38,1.41t-.38,1.33l-.06.18H343.1V254a18.3,18.3,0,0,1-.38,3.79,8.57,8.57,0,0,1-1.12,2.88Z" transform="translate(-158.29 -216.28)"/><path class="cls-1" d="M357.22,232.3q-.11-.6-.28-1.34t-.4-1.64q-.22-.83-.44-1.6t-.36-1.15h5.74c.12.29.25.65.4,1.09s.33,1,.5,1.58.34,1.13.5,1.71.26,1,.36,1.36Z" transform="translate(-158.29 -216.28)"/><path class="cls-1" d="M383.21,237.3c-.47-.57-1-1.23-1.53-2s-1.15-1.63-1.71-2.51c-.32-.49-.62-1-.92-1.5a1.06,1.06,0,0,0-.91-.51h-2.55a1.06,1.06,0,0,0-.92.53c-.35.63-.71,1.23-1.08,1.81-.55.88-1.11,1.7-1.65,2.44s-1,1.29-1.37,1.73h-6.79c.66-.69,1.32-1.44,2-2.23s1.39-1.83,2-2.79,1.24-2,1.78-2.94l.32-.59a4.23,4.23,0,0,1,3.77-2.18h6.27a4.29,4.29,0,0,1,3.64,2l.25.4c.61.95,1.28,1.94,2,3s1.5,2,2.28,3,1.38,1.69,2,2.38Z" transform="translate(-158.29 -216.28)"/><path class="cls-1" d="M363.48,260.66a6.8,6.8,0,0,1-7-6.58v-15.8h-2.6v-4.34h8.62v19.31a2.74,2.74,0,0,0,2.68,2.66v4.76Z" transform="translate(-158.29 -216.28)"/><path class="cls-1" d="M373.07,260.66a5.41,5.41,0,0,1-5.56-5.23v-17h5.67v15a2.43,2.43,0,0,0,2.5,2.36h14.2v4.83Z" transform="translate(-158.29 -216.28)"/><polygon class="cls-1" points="104.6 19.84 104.65 43.12 107.7 43.12 107.64 19.78 104.6 19.84"/><path class="cls-1" d="M273.92,230.57l-3.25.06h0l-.06-3.56-3.65.06.06,3.44-4.13.06.06,4.17,4-.06.06,26h3.65V246.09a7.65,7.65,0,0,0,3.34,1l0-3.47a4.71,4.71,0,0,1-3.29-2.45l-.06-6.39,3.37-.06Z" transform="translate(-158.29 -216.28)"/><path class="cls-1" d="M285.18,248.36l-3.75.06h-.14l.26,6.43a1.5,1.5,0,0,1-1.5,1.56l-1.37.06-.06-9.59h1.32a5.17,5.17,0,0,0,5.16-5.16l-.06-14.64-10.52.06.06,33.48v.05h0v.06h5.82a5,5,0,0,0,5-5.18Zm-6.5-13.3v-3.91l2.61-.06.06,3.9h0Zm0,7.79v-4l2.61-.06V241a1.8,1.8,0,0,1-1.8,1.8Z" transform="translate(-158.29 -216.28)"/><path class="cls-1" d="M298.9,244.15l-.06-4.14-3.92.06-.06-8.63v-.06l4-.06-.06-4.14-12.31.06.06,4.14,4.45-.06h.11L291,240l-1.39.06c0-.07,0-6.67-.06-7.05l-3.72.06.06,11.13,3.31-.06h.62c0,.13-.58,3-1.78,7.25-1,3.55-2.56,8.29-2.79,9.17l0,.1h0a.28.28,0,0,0,0,.06l4-.07c.31-1.14,2.22-7.37,2.7-8.92l0,4a5,5,0,0,0,5,5h1.91l-.06-4.31h-2.16a1.5,1.5,0,0,1-1.5-1.5l-.06-10.61v-.09Z" transform="translate(-158.29 -216.28)"/><path class="cls-1" d="M381.85,238.45h5.1s.7,9.79-15.15,11.82V245.1S380.8,244.8,381.85,238.45Z" transform="translate(-158.29 -216.28)"/></svg>